<svg xmlns="http://www.w3.org/2000/svg" xmlns:xlink="http://www.w3.org/1999/xlink">
  <symbol id="ocaml" viewBox="0 0 24 24">
    <path d="M12.178 21.637c-.085-.17-.187-.524-.255-.676-.067-.135-.27-.506-.37-.625-.22-.253-.27-.27-.338-.608-.12-.574-.405-1.588-.76-2.296-.187-.372-.49-.677-.761-.947-.236-.236-.777-.624-.878-.607-.895.169-1.166 1.046-1.587 1.739-.237.388-.473.71-.66 1.115-.167.371-.151.793-.439 1.115a2.952 2.952 0 00-.624 1.097c-.034.084-.101.929-.186 1.131l1.318-.084c1.233.085.877.557 2.787.456l3.022-.1a5.376 5.376 0 00-.27-.71zM20.96 1.539H3.023A3.02 3.02 0 000 4.56v6.587c.44-.152 1.047-1.08 1.25-1.3.337-.389.405-.895.574-1.2.389-.709.456-1.215 1.334-1.215.406 0 .575.1.845.473.186.253.523.743.675 1.064.186.371.474.86.609.962.1.068.185.136.27.17.135.05.253-.051.354-.12.118-.1.17-.286.287-.556.17-.39.339-.827.44-.997.169-.27.236-.608.422-.76.27-.236.641-.253.743-.27.557-.118.81.27 1.08.507.186.168.423.49.609.91.135.339.304.661.388.846.068.185.237.49.338.86.101.322.337.575.44.744 0 0 .152.406 1.03.778a7.505 7.505 0 00.81.286c.39.135.76.12 1.233.068.338 0 .524-.49.676-.878.084-.237.185-.895.236-1.081.05-.185-.085-.32.034-.49.135-.186.22-.203.287-.439.17-.523 1.114-.54 1.655-.54.456 0 .389.44 1.149.287.439-.085.86.05 1.318.185.388.102.76.22.98.473.134.17.489.997.134 1.031.033.033.067.118.118.151-.085.322-.422.085-.625.051-.253-.05-.44 0-.693.118-.439.187-1.063.17-1.452.49-.32.271-.32.861-.473 1.2 0 0-.422 1.063-1.317 1.722-.237.17-.692.574-1.672.726-.44.068-.86.068-1.318.05-.22-.016-.438-.016-.658-.016-.136 0-.575-.017-.558.034l-.05.119a.6.6 0 00.033.169c.017.1.017.185.034.27 0 .185-.017.388 0 .574.017.388.17.743.186 1.148.017.44.236.913.456 1.267.085.135.203.152.254.32.067.186 0 .406.033.609.118.794.355 1.638.71 2.364v.017c.439-.067.895-.236 1.47-.32 1.063-.153 2.532-.085 3.478-.17 2.399-.22 3.7.98 5.844.49V4.562a3.045 3.045 0 00-3.04-3.023zm-8.951 14.187c0-.034 0-.034 0 0zm-6.47 2.769c.17-.372.271-.778.406-1.15.135-.354.337-.86.693-1.046-.05-.05-.744-.068-.929-.085a7.406 7.406 0 01-.608-.084 22.976 22.976 0 01-1.15-.236c-.22-.051-.979-.322-1.13-.39-.39-.168-.642-.658-.93-.607-.185.034-.37.101-.49.287-.1.152-.134.423-.202.608-.084.203-.22.405-.32.608-.238.354-.626.676-.795 1.03-.033.085-.05.169-.084.254v4.07c.202.034.405.068.624.135 1.69.456 2.095.49 3.75.304l.152-.017c.118-.27.22-1.165.304-1.435.067-.22.153-.39.187-.591.033-.203 0-.406-.017-.59-.034-.491.354-.661.54-1.065z"/>
  </symbol>
  <symbol id="cc" viewBox="0 0 24 24">
    <path d="M11.983 0c-3.292 0-6.19 1.217-8.428 3.485C1.25 5.819 0 8.844 0 12c0 3.189 1.217 6.148 3.522 8.45C5.827 22.75 8.822 24 11.983 24c3.16 0 6.222-1.25 8.593-3.583C22.815 18.214 24 15.287 24 12c0-3.255-1.186-6.214-3.458-8.483C18.238 1.217 15.275 0 11.983 0zm.033 2.17c2.7 0 5.103 1.02 6.98 2.893 1.843 1.841 2.83 4.274 2.83 6.937 0 2.696-.954 5.063-2.798 6.872-1.943 1.906-4.444 2.926-7.012 2.926-2.601 0-5.038-1.019-6.914-2.893-1.877-1.875-2.93-4.34-2.93-6.905 0-2.597 1.053-5.063 2.93-6.97 1.844-1.874 4.214-2.86 6.914-2.86zM8.68 8.278C6.723 8.278 5.165 9.66 5.165 12c0 2.38 1.465 3.722 3.581 3.722 1.358 0 2.516-.744 3.155-1.874l-1.491-.758c-.333.798-.839 1.037-1.478 1.037-1.105 0-1.61-.917-1.61-2.126 0-1.21.426-2.127 1.61-2.127.32 0 .96.173 1.332.97l1.597-.838c-.68-1.236-1.837-1.728-3.181-1.728zm6.932 0c-1.957 0-3.514 1.382-3.514 3.722 0 2.38 1.464 3.722 3.58 3.722 1.359 0 2.516-.744 3.155-1.874l-1.49-.758c-.333.798-.84 1.037-1.478 1.037-1.105 0-1.611-.917-1.611-2.126 0-1.21.426-2.127 1.61-2.127.32 0 .96.173 1.332.97l1.597-.838c-.68-1.236-1.837-1.728-3.181-1.728z"/>
   </symbol>
   <symbol id="rss" viewBox="0 0 24 24">
     <path d="M19.199 24C19.199 13.467 10.533 4.8 0 4.8V0c13.165 0 24 10.835 24 24h-4.801zM3.291 17.415c1.814 0 3.293 1.479 3.293 3.295 0 1.813-1.485 3.29-3.301 3.29C1.47 24 0 22.526 0 20.71s1.475-3.294 3.291-3.295zM15.909 24h-4.665c0-6.169-5.075-11.245-11.244-11.245V8.09c8.727 0 15.909 7.184 15.909 15.91z"/>
   </symbol>
</svg>
